<svg viewBox="0 0 60 36">
  <path d="M51.312,18.215 C51.312,18.522 51.288,18.803 51.237,19.060 C51.059,20.156 50.071,20.788 49.613,20.788 C48.851,20.802 48.394,20.158 48.394,19.201 C48.394,18.069 49.054,16.784 50.146,16.784 C51.008,16.782 51.312,17.481 51.312,18.215 ZM53.725,21.606 L53.672,21.606 L53.672,21.731 L53.750,21.731 C53.750,21.731 53.776,21.731 53.800,21.721 C53.827,21.710 53.827,21.686 53.827,21.665 C53.827,21.647 53.827,21.626 53.800,21.617 C53.800,21.606 53.750,21.606 53.725,21.606 ZM58.712,27.699 C58.764,27.791 58.789,27.888 58.789,27.987 C58.789,28.086 58.764,28.185 58.712,28.275 C58.659,28.368 58.588,28.442 58.497,28.492 C58.405,28.543 58.308,28.569 58.211,28.569 C58.109,28.569 58.012,28.543 57.920,28.492 C57.829,28.442 57.758,28.368 57.705,28.275 C57.654,28.185 57.627,28.088 57.627,27.987 C57.627,27.886 57.654,27.791 57.705,27.699 C57.755,27.604 57.830,27.534 57.922,27.483 C58.014,27.432 58.109,27.406 58.208,27.406 C58.306,27.406 58.400,27.432 58.492,27.483 C58.588,27.534 58.661,27.604 58.712,27.699 ZM58.331,27.992 C58.382,27.970 58.407,27.919 58.407,27.866 C58.407,27.817 58.382,27.769 58.356,27.745 C58.305,27.719 58.254,27.717 58.230,27.717 L58.027,27.717 L58.027,28.203 L58.128,28.203 L58.128,28.011 L58.203,28.011 L58.281,28.203 L58.407,28.203 L58.331,27.992 ZM29.713,17.608 C29.713,17.036 29.357,16.702 28.723,16.702 C28.037,16.702 27.555,17.150 27.352,17.967 L29.713,17.971 C29.713,17.819 29.713,17.701 29.713,17.608 ZM54.156,21.761 C54.156,21.996 53.980,22.183 53.750,22.183 C53.522,22.183 53.319,21.996 53.319,21.761 C53.319,21.533 53.522,21.344 53.750,21.344 C53.980,21.344 54.156,21.533 54.156,21.761 ZM53.876,21.795 C53.926,21.773 53.953,21.721 53.953,21.669 C53.953,21.619 53.926,21.571 53.902,21.548 C53.851,21.521 53.800,21.518 53.774,21.518 L53.571,21.518 L53.571,22.006 L53.672,22.006 L53.672,21.814 L53.750,21.814 L53.827,22.006 L53.954,22.006 L53.876,21.795 ZM60.011,17.992 C60.011,17.994 60.011,17.997 60.011,18.001 C60.014,27.937 51.975,35.996 42.054,35.999 C37.414,36.000 33.183,34.239 29.997,31.345 C30.011,31.330 30.028,31.321 30.043,31.306 C30.043,31.306 30.043,31.306 30.042,31.304 L30.045,31.304 C30.698,30.707 31.310,30.065 31.869,29.377 L28.160,29.377 C28.729,30.075 29.331,30.741 29.997,31.344 C26.809,34.233 22.587,35.993 17.955,35.993 C8.039,35.993 -0.008,27.932 -0.008,17.999 C-0.008,8.106 7.976,0.070 17.840,0.005 C17.878,0.005 17.917,0.005 17.955,0.005 C22.587,0.005 26.810,1.765 29.998,4.654 C33.183,1.764 37.409,0.002 42.047,0.001 C51.966,-0.000 60.009,8.055 60.011,17.992 ZM27.083,8.440 L33.171,8.440 C32.750,7.767 32.283,7.122 31.777,6.513 L28.365,6.513 C27.904,7.135 27.472,7.795 27.083,8.440 ZM25.050,12.258 L34.979,12.258 C34.757,11.597 34.499,10.954 34.205,10.330 L26.019,10.330 C25.494,11.322 25.148,12.072 25.050,12.258 ZM18.645,13.646 L15.192,13.646 L12.832,19.014 L12.679,13.646 L9.354,13.646 L7.704,22.314 L9.633,22.314 L10.902,15.692 L11.258,22.314 L13.188,22.314 L16.106,15.648 L14.837,22.314 L16.968,22.314 L18.645,13.646 ZM24.660,17.174 C24.660,15.823 23.695,15.107 21.869,15.107 C21.082,15.107 20.396,15.208 19.331,15.479 L19.052,17.066 L19.229,17.020 L19.534,16.943 C19.990,16.821 20.675,16.748 21.285,16.748 C22.274,16.748 22.655,16.922 22.655,17.387 C22.655,17.516 22.629,17.613 22.579,17.845 C22.249,17.811 21.944,17.791 21.716,17.791 C19.357,17.791 17.986,18.793 17.986,20.510 C17.986,21.647 18.773,22.432 19.915,22.432 C20.880,22.432 21.617,22.163 22.149,21.584 L22.098,22.311 L23.874,22.311 L23.899,22.120 L23.925,21.878 L23.976,21.521 L24.051,21.072 L24.508,18.569 C24.636,17.786 24.660,17.521 24.660,17.174 ZM25.042,19.289 C25.042,21.366 26.286,22.449 28.672,22.449 C29.408,22.449 30.118,22.356 30.829,22.166 L31.184,20.401 C30.423,20.711 29.738,20.848 28.976,20.848 C27.757,20.848 27.123,20.432 27.123,19.618 C27.123,19.550 27.123,19.501 27.149,19.394 L31.361,19.394 C31.540,18.678 31.617,18.172 31.617,17.651 C31.617,16.088 30.499,15.091 28.749,15.091 C26.616,15.091 25.042,16.872 25.042,19.289 ZM34.240,25.599 L25.760,25.599 C26.071,26.268 26.434,26.905 26.821,27.525 L33.194,27.525 C33.580,26.906 33.929,26.263 34.240,25.599 ZM37.402,15.246 C36.845,15.169 36.008,15.107 35.500,15.107 C33.113,15.107 32.276,16.191 32.276,17.493 C32.276,18.382 32.784,18.997 33.925,19.458 C34.788,19.809 34.915,19.913 34.915,20.236 C34.915,20.675 34.535,20.871 33.696,20.871 C33.038,20.871 32.452,20.786 31.767,20.594 L31.462,22.219 L31.564,22.239 L31.944,22.309 C32.074,22.333 32.276,22.354 32.530,22.372 C33.038,22.411 33.418,22.430 33.696,22.430 C35.981,22.430 37.022,21.688 37.022,20.078 C37.022,19.111 36.589,18.544 35.500,18.116 C34.611,17.759 34.510,17.679 34.510,17.349 C34.510,16.970 34.864,16.777 35.551,16.777 C35.982,16.777 36.540,16.815 37.100,16.880 L37.402,15.246 ZM39.687,20.212 C39.687,20.146 39.687,20.049 39.712,19.921 L40.270,16.980 L41.362,16.980 L41.667,15.264 L40.577,15.264 L40.880,13.646 L38.775,13.646 L37.785,19.028 L37.684,19.586 L37.557,20.280 C37.530,20.503 37.506,20.713 37.506,20.912 C37.506,21.911 38.090,22.462 39.181,22.462 C39.664,22.462 40.120,22.391 40.704,22.231 L40.982,20.667 C40.829,20.713 40.653,20.735 40.425,20.735 C39.916,20.734 39.687,20.579 39.687,20.212 ZM45.881,17.264 L46.135,17.316 L46.894,15.324 C46.716,15.255 46.691,15.255 46.665,15.247 C46.563,15.223 46.486,15.209 46.486,15.205 C46.411,15.195 46.334,15.188 46.257,15.188 C45.571,15.188 45.065,15.500 44.404,16.333 L44.608,15.263 L42.679,15.263 L41.384,22.314 L43.516,22.314 C44.279,18.003 44.606,17.246 45.622,17.246 C45.703,17.247 45.779,17.253 45.881,17.264 ZM53.522,19.118 C53.573,18.709 53.573,18.678 53.573,18.241 C53.573,16.452 52.405,15.060 50.195,15.060 C47.657,15.060 46.008,16.754 46.008,19.250 C46.008,21.038 46.970,22.502 49.386,22.502 C51.566,22.504 53.190,21.463 53.522,19.118 ZM54.309,21.761 C54.309,21.460 54.055,21.213 53.750,21.213 C53.445,21.213 53.190,21.460 53.190,21.761 C53.190,22.066 53.445,22.314 53.750,22.314 C54.055,22.314 54.309,22.066 54.309,21.761 ZM20.042,20.220 C20.042,20.658 20.322,20.939 20.803,20.939 C21.666,20.939 22.275,20.217 22.326,19.174 C22.097,19.152 21.995,19.147 21.842,19.147 C20.652,19.146 20.042,19.507 20.042,20.220 ZM58.179,27.805 L58.128,27.805 L58.128,27.930 L58.204,27.930 C58.204,27.930 58.230,27.930 58.255,27.920 C58.281,27.909 58.281,27.885 58.281,27.863 C58.281,27.846 58.281,27.826 58.255,27.815 C58.255,27.805 58.204,27.805 58.179,27.805 Z" />
</svg>