<svg viewBox="0 0 60 35">
  <path d="M58.496,26.718 C58.403,26.669 58.309,26.645 58.212,26.645 C58.113,26.645 58.018,26.671 57.926,26.718 C57.834,26.768 57.759,26.836 57.708,26.928 C57.655,27.018 57.631,27.113 57.631,27.210 C57.631,27.307 57.658,27.402 57.708,27.492 C57.762,27.581 57.833,27.652 57.924,27.701 C58.016,27.751 58.113,27.777 58.214,27.777 C58.313,27.777 58.410,27.751 58.501,27.701 C58.592,27.652 58.664,27.581 58.715,27.492 C58.767,27.402 58.793,27.308 58.793,27.210 C58.793,27.112 58.766,27.018 58.715,26.928 C58.662,26.836 58.589,26.768 58.496,26.718 ZM58.358,27.524 L58.304,27.428 C58.260,27.354 58.224,27.305 58.197,27.284 C58.180,27.272 58.153,27.264 58.117,27.264 L58.059,27.264 L58.059,27.522 L57.958,27.522 L57.958,27.522 L57.958,26.914 L58.173,26.914 C58.247,26.914 58.300,26.919 58.331,26.931 C58.364,26.944 58.392,26.961 58.410,26.989 C58.430,27.020 58.439,27.048 58.439,27.079 C58.439,27.124 58.422,27.163 58.391,27.197 C58.358,27.227 58.313,27.249 58.260,27.252 C58.282,27.259 58.300,27.272 58.313,27.284 C58.340,27.309 58.369,27.349 58.407,27.404 L58.483,27.524 L58.358,27.524 L58.358,27.524 ZM58.299,27.154 C58.277,27.173 58.238,27.180 58.180,27.180 L58.057,27.180 L58.057,26.998 L58.173,26.998 C58.222,26.998 58.253,27.001 58.272,27.008 C58.292,27.015 58.304,27.027 58.316,27.039 C58.326,27.054 58.331,27.070 58.331,27.088 C58.331,27.117 58.321,27.138 58.299,27.154 ZM57.728,21.010 C57.650,21.050 57.590,21.109 57.546,21.184 C57.503,21.261 57.481,21.340 57.481,21.420 C57.481,21.502 57.503,21.580 57.544,21.655 C57.590,21.728 57.648,21.787 57.725,21.830 C57.803,21.871 57.882,21.894 57.965,21.894 C58.048,21.894 58.130,21.871 58.205,21.830 C58.282,21.787 58.341,21.730 58.386,21.655 C58.430,21.579 58.449,21.502 58.449,21.420 C58.449,21.340 58.427,21.261 58.384,21.184 C58.340,21.110 58.280,21.050 58.202,21.010 C58.125,20.968 58.047,20.948 57.965,20.948 C57.885,20.948 57.805,20.968 57.728,21.010 ZM58.166,21.201 C58.186,21.226 58.195,21.257 58.195,21.290 C58.195,21.335 58.178,21.371 58.145,21.406 C58.113,21.439 58.069,21.455 58.016,21.460 C58.040,21.469 58.057,21.480 58.069,21.493 C58.096,21.516 58.125,21.554 58.161,21.611 L58.238,21.731 L58.115,21.731 L58.059,21.637 C58.016,21.559 57.981,21.513 57.955,21.493 C57.935,21.479 57.909,21.472 57.873,21.472 L57.815,21.472 L57.815,21.730 L57.711,21.730 L57.711,21.122 L57.927,21.122 C58.000,21.122 58.054,21.128 58.086,21.139 C58.117,21.151 58.144,21.172 58.166,21.201 ZM57.927,21.205 C57.977,21.205 58.008,21.210 58.029,21.216 C58.047,21.224 58.062,21.234 58.072,21.248 C58.082,21.263 58.087,21.276 58.087,21.297 C58.087,21.323 58.076,21.347 58.057,21.363 C58.034,21.381 57.995,21.389 57.937,21.389 L57.815,21.389 L57.815,21.205 L57.927,21.205 L57.927,21.205 ZM44.655,18.703 C44.981,18.704 45.016,18.737 45.072,18.747 C45.108,19.059 44.870,20.529 43.719,20.529 C43.123,20.529 42.970,20.088 42.970,19.826 C42.970,19.316 43.254,18.703 44.655,18.703 ZM13.652,18.703 C13.979,18.704 14.014,18.737 14.069,18.747 C14.105,19.059 13.866,20.529 12.715,20.529 C12.121,20.529 11.966,20.088 11.966,19.826 C11.966,19.316 12.250,18.703 13.652,18.703 ZM42.045,0.002 C37.409,0.003 33.183,1.715 29.998,4.525 C26.810,1.718 22.587,0.006 17.954,0.006 C17.916,0.006 17.876,0.006 17.840,0.006 C7.978,0.069 -0.008,7.881 -0.008,17.500 C-0.008,27.156 8.039,34.993 17.954,34.993 C22.586,34.993 26.809,33.283 29.996,30.473 C29.331,29.886 28.729,29.238 28.160,28.562 L31.869,28.562 C31.310,29.229 30.700,29.856 30.045,30.435 L30.041,30.435 L30.042,30.435 C30.027,30.450 30.011,30.461 29.996,30.474 C33.185,33.286 37.414,35.000 42.053,34.999 C51.975,34.995 60.014,27.160 60.011,17.500 C60.011,17.496 60.011,17.494 60.011,17.492 C60.010,7.831 51.967,-0.000 42.045,0.002 ZM28.364,6.332 L31.779,6.332 C32.282,6.926 32.750,7.551 33.173,8.205 L27.083,8.205 C27.474,7.578 27.906,6.937 28.364,6.332 ZM26.021,10.043 L34.209,10.043 C34.501,10.649 34.759,11.275 34.984,11.917 L25.052,11.917 C25.150,11.736 25.496,11.007 26.021,10.043 ZM7.325,21.957 L8.414,15.268 L5.957,21.957 L4.639,21.957 L4.468,15.268 L3.305,21.957 L1.459,21.957 L2.989,13.087 L5.779,13.087 L5.877,18.530 L7.762,13.087 L10.790,13.087 L9.281,21.957 L7.325,21.957 ZM13.849,21.945 L13.912,21.234 C13.883,21.236 13.300,22.089 11.951,22.089 C11.244,22.089 10.104,21.714 10.104,20.081 C10.104,18.008 11.842,17.320 13.496,17.320 C13.756,17.320 14.317,17.366 14.317,17.366 C14.317,17.366 14.381,17.239 14.381,16.897 C14.381,16.333 13.860,16.256 13.148,16.256 C11.893,16.256 11.063,16.582 11.063,16.582 L11.341,14.978 C11.341,14.978 12.347,14.567 13.657,14.567 C14.335,14.567 16.284,14.637 16.284,16.813 L15.533,21.943 L13.849,21.943 L13.849,21.945 ZM20.967,19.683 C20.967,22.158 18.505,22.051 18.075,22.051 C16.470,22.051 15.975,21.837 15.929,21.824 L16.184,20.194 C16.186,20.180 16.989,20.479 17.883,20.479 C18.399,20.479 19.067,20.430 19.067,19.829 C19.067,18.931 16.673,19.145 16.673,17.014 C16.673,15.132 18.108,14.582 19.523,14.582 C20.616,14.582 21.288,14.728 21.288,14.728 L21.046,16.371 C21.046,16.371 20.009,16.288 19.741,16.288 C19.060,16.288 18.690,16.433 18.690,16.897 C18.688,17.827 20.967,17.370 20.967,19.683 ZM23.924,20.331 C24.094,20.331 24.286,20.275 24.418,20.275 L24.178,21.858 C23.986,21.910 23.442,22.098 22.744,22.103 C21.853,22.110 21.220,21.624 21.220,20.524 C21.220,19.786 22.307,13.700 22.349,13.660 L24.261,13.660 L24.067,14.749 L25.021,14.749 L24.777,16.501 L23.764,16.501 L23.227,19.730 C23.185,19.987 23.259,20.331 23.924,20.331 ZM28.130,14.541 C30.229,14.541 30.857,16.037 30.857,17.265 C30.857,17.756 30.604,18.962 30.604,18.962 L26.719,18.962 C26.719,18.962 26.359,20.453 28.412,20.453 C29.375,20.453 30.444,19.996 30.444,19.996 L30.107,21.792 C30.107,21.792 29.489,22.098 28.087,22.098 C26.566,22.098 24.783,21.472 24.783,18.841 C24.784,16.560 26.207,14.542 28.130,14.541 ZM33.196,26.759 L26.823,26.759 C26.435,26.155 26.073,25.536 25.762,24.886 L34.242,24.886 C33.931,25.533 33.582,26.157 33.196,26.759 ZM32.769,21.969 L30.806,21.969 L31.999,14.750 L33.779,14.750 L33.609,15.796 C33.609,15.796 34.243,14.658 35.100,14.658 C35.349,14.658 35.469,14.682 35.469,14.682 C35.215,15.187 34.991,15.648 34.757,16.842 C33.430,16.382 33.328,18.886 32.769,21.969 ZM40.248,21.858 C40.248,21.858 39.219,22.113 38.575,22.113 C36.293,22.113 35.134,20.578 35.134,18.255 C35.134,14.752 37.282,12.887 39.488,12.887 C40.485,12.887 41.642,13.343 41.642,13.343 L41.330,15.315 C41.330,15.315 40.548,14.783 39.575,14.783 C38.274,14.783 37.106,15.993 37.106,18.191 C37.106,19.275 37.651,20.284 39.009,20.284 C39.654,20.284 40.590,19.826 40.590,19.826 L40.248,21.858 ZM44.851,21.945 L44.916,21.234 C44.884,21.236 44.302,22.089 42.954,22.089 C42.247,22.089 41.107,21.714 41.107,20.081 C41.107,18.008 42.845,17.320 44.498,17.320 C44.758,17.320 45.321,17.366 45.321,17.366 C45.321,17.366 45.385,17.239 45.385,16.897 C45.385,16.333 44.865,16.256 44.151,16.256 C42.896,16.256 42.068,16.582 42.068,16.582 L42.345,14.978 C42.345,14.978 43.351,14.567 44.663,14.567 C45.339,14.567 47.290,14.637 47.289,16.813 L46.537,21.943 C46.536,21.945 44.851,21.945 44.851,21.945 ZM48.826,21.969 L46.863,21.969 L48.056,14.750 L49.837,14.750 L49.667,15.796 C49.667,15.796 50.302,14.658 51.159,14.658 C51.408,14.658 51.527,14.682 51.527,14.682 C51.274,15.187 51.047,15.648 50.815,16.842 C49.487,16.382 49.385,18.886 48.826,21.969 ZM58.468,21.137 C58.522,21.229 58.546,21.323 58.546,21.421 C58.546,21.519 58.522,21.611 58.468,21.703 C58.418,21.792 58.346,21.861 58.254,21.912 C58.163,21.962 58.067,21.988 57.965,21.988 C57.866,21.988 57.770,21.962 57.678,21.912 C57.586,21.861 57.515,21.792 57.464,21.703 C57.412,21.611 57.387,21.519 57.387,21.421 C57.387,21.322 57.412,21.228 57.464,21.137 C57.516,21.047 57.590,20.977 57.681,20.928 C57.775,20.879 57.868,20.854 57.965,20.854 C58.064,20.854 58.159,20.879 58.251,20.928 C58.345,20.977 58.418,21.047 58.468,21.137 ZM55.678,15.588 L56.092,13.096 L58.008,13.093 L56.547,21.950 L54.686,21.950 L54.770,21.285 C54.770,21.285 54.136,22.063 52.989,22.063 C51.398,22.063 50.619,20.568 50.619,19.041 C50.619,16.678 52.079,14.618 53.831,14.618 C54.959,14.619 55.678,15.588 55.678,15.588 ZM29.017,17.485 L26.895,17.485 C26.895,17.364 27.095,16.209 28.138,16.209 C29.217,16.209 29.017,17.392 29.017,17.485 ZM54.161,16.412 C54.849,16.412 55.202,16.871 55.202,17.955 C55.202,18.938 54.702,20.253 53.666,20.253 C52.978,20.253 52.655,19.690 52.655,18.807 C52.655,17.363 53.320,16.412 54.161,16.412 Z" />
</svg>