<svg viewBox="0 0 48 15">
  <path d="M44.840,0.278 L41.826,0.278 C40.891,0.278 40.194,0.537 39.782,1.482 L33.991,14.771 L38.087,14.771 C38.087,14.771 38.755,12.984 38.906,12.593 C39.355,12.593 43.335,12.599 43.903,12.599 C44.020,13.105 44.378,14.771 44.378,14.771 L47.998,14.771 L44.840,0.278 ZM40.029,9.625 C40.351,8.791 41.583,5.572 41.583,5.572 C41.562,5.612 41.903,4.733 42.103,4.188 L42.367,5.438 C42.367,5.438 43.114,8.900 43.270,9.625 L40.029,9.625 ZM34.266,10.026 C34.236,13.038 31.572,14.982 27.472,14.982 C25.723,14.964 24.039,14.613 23.125,14.209 L23.674,10.962 L24.177,11.194 C25.458,11.735 26.288,11.954 27.850,11.954 C28.971,11.954 30.172,11.509 30.183,10.539 C30.190,9.903 29.680,9.450 28.162,8.740 C26.680,8.045 24.719,6.882 24.744,4.800 C24.765,1.981 27.482,0.014 31.338,0.014 C32.849,0.014 34.060,0.329 34.832,0.623 L34.305,3.766 L33.952,3.598 C33.234,3.305 32.310,3.023 31.032,3.043 C29.506,3.043 28.797,3.688 28.797,4.290 C28.789,4.970 29.623,5.417 30.988,6.088 C33.241,7.121 34.281,8.378 34.266,10.026 ZM0.005,0.429 L0.055,0.138 L6.103,0.138 C6.919,0.170 7.576,0.433 7.802,1.316 L9.118,7.724 C7.825,4.373 4.711,1.584 0.005,0.429 ZM17.644,0.275 L11.501,14.749 L7.373,14.755 L3.879,2.663 C6.391,4.291 8.530,6.875 9.284,8.672 L9.691,10.166 L13.511,0.277 L17.644,0.275 L17.644,0.275 ZM19.221,0.264 L23.124,0.264 L20.683,14.765 L16.783,14.765 L19.221,0.264 Z" />
</svg>